<?xml version="1.0" encoding="utf-8"?>
<!-- Generator: Adobe Illustrator 19.0.0, SVG Export Plug-In . SVG Version: 6.00 Build 0)  -->
<svg version="1.1" id="Layer_1" xmlns="http://www.w3.org/2000/svg" xmlns:xlink="http://www.w3.org/1999/xlink" x="0px" y="0px"
	 viewBox="0 0 289.9 183.2" style="enable-background:new 0 0 289.9 183.2;" xml:space="preserve">
<style type="text/css">
	.st0{opacity:0.5;fill:#4D3F99;}
	.st1{fill:none;stroke:#4D3F99;stroke-width:2;stroke-miterlimit:10;}
	.st2{fill:#4D3F99;}
	.st3{opacity:0.5;fill:none;stroke:#4D3F99;stroke-width:2;stroke-miterlimit:10;stroke-dasharray:3;}
	.st4{opacity:0.5;}
	.st5{fill:none;stroke:#4D3F99;stroke-width:2;stroke-miterlimit:10;stroke-dasharray:2.9691,2.9691;}
	.st6{fill:none;stroke:#4D3F99;stroke-width:2;stroke-miterlimit:10;stroke-dasharray:2.9744,2.9744;}
</style>
<g id="XMLID_29_">
	<polygon id="XMLID_52_" class="st0" points="254.9,1 289.1,35.2 34.9,36.8 35.2,182.2 1,148 2,2 	"/>
	<rect id="XMLID_51_" x="35.2" y="35.2" class="st1" width="253.7" height="112.8"/>
	<rect id="XMLID_50_" x="35.2" y="148.1" class="st1" width="253.7" height="34.2"/>
	<polyline id="XMLID_49_" class="st1" points="35.9,113.8 1,113.8 1,1 254.9,1 254.9,35 	"/>
	<polyline id="XMLID_48_" class="st1" points="1,113.8 1,148 35.5,148 	"/>
	<path id="XMLID_47_" class="st2" d="M215.9,79.4c0,0-24.6-8.2-48.6,9c0,0,3.4,4.4-0.5,8.6c-23.7-25.3-50.8-19.5-58.6-17.5
		c0,0,27.7,2.6,54.1,26.4C187.2,83.2,215.9,79.4,215.9,79.4z"/>
	<line id="XMLID_46_" class="st1" x1="254.8" y1="1" x2="289" y2="35.2"/>
	<line id="XMLID_45_" class="st3" x1="254.8" y1="148" x2="289" y2="182.2"/>
	<line id="XMLID_44_" class="st1" x1="1" y1="114.3" x2="35.2" y2="148.5"/>
	<line id="XMLID_43_" class="st1" x1="1.4" y1="148" x2="35.6" y2="182.2"/>
	<g id="XMLID_37_" class="st4">
		<g id="XMLID_57_">
			<line id="XMLID_60_" class="st1" x1="35.9" y1="113.8" x2="37.4" y2="113.8"/>
			<polyline id="XMLID_59_" class="st5" points="40.4,113.8 254.8,114.1 286.9,146.2 			"/>
			<line id="XMLID_58_" class="st1" x1="287.9" y1="147.3" x2="289" y2="148.3"/>
		</g>
	</g>
	<g id="XMLID_31_" class="st4">
		<g id="XMLID_42_">
			<line id="XMLID_55_" class="st1" x1="254.8" y1="35" x2="254.8" y2="36.5"/>
			<line id="XMLID_54_" class="st6" x1="254.8" y1="39.5" x2="254.8" y2="145"/>
			<line id="XMLID_53_" class="st1" x1="254.8" y1="146.5" x2="254.8" y2="148"/>
		</g>
	</g>
	<line id="XMLID_30_" class="st1" x1="1.2" y1="1" x2="35.4" y2="35.2"/>
</g>
<g id="XMLID_2_">
	<path id="XMLID_27_" class="st2" d="M47.7,175.5v-20.8H50v18.9h3.7v1.9H47.7z"/>
	<path id="XMLID_25_" class="st2" d="M66.7,175.5v-20.8h6.5v1.9h-4.2v7.5h3.5v1.9h-3.5v7.5h4.2v1.9H66.7z"/>
	<path id="XMLID_22_" class="st2" d="M91.6,175.5v-8.4h-3.2v8.4h-2.3V157c0-0.6,0.2-1.1,0.7-1.6c0.4-0.4,1-0.7,1.6-0.7h3.3
		c0.6,0,1.1,0.2,1.6,0.7c0.4,0.4,0.7,1,0.7,1.6v18.5H91.6z M91.6,156.7h-3.2v8.6h3.2V156.7z"/>
	<path id="XMLID_20_" class="st2" d="M109.6,175.5l-3-20.8h2.3l2.1,17.5l2.1-17.5h2.3l-2.9,20.8H109.6z"/>
	<path id="XMLID_18_" class="st2" d="M128.3,175.5v-20.8h2.3v20.8H128.3z"/>
	<path id="XMLID_16_" class="st2" d="M150,175.5v-18.9h-3.4v18.9h-2.3v-20.8h2.3l0,1.1c0.2-0.4,0.4-0.7,0.7-0.9
		c0.3-0.2,0.7-0.3,1.2-0.3h1.7c0.6,0,1.1,0.2,1.6,0.7c0.4,0.4,0.7,1,0.7,1.6v18.5H150z"/>
	<path id="XMLID_14_" class="st2" d="M168.1,175.7c-0.6,0-1.1-0.2-1.6-0.7c-0.4-0.4-0.7-1-0.7-1.6v-16.7c0-0.6,0.2-1.1,0.7-1.6
		c0.4-0.4,1-0.7,1.6-0.7h3.4c0.6,0,1.1,0.2,1.6,0.7c0.4,0.4,0.6,1,0.6,1.6v3.3h-2.3v-3.6h-3.3v17.3h3.5v-6.7h-1.6v-1.9h3.8v8.3
		c0,0.6-0.2,1.1-0.6,1.6c-0.4,0.4-0.9,0.7-1.6,0.7H168.1z"/>
	<path id="XMLID_12_" class="st2" d="M189.2,175.7c-0.6,0-1.1-0.2-1.6-0.7c-0.4-0.4-0.7-1-0.7-1.6v-2.9h2.3v3.2h2.7v-4.3l-4.6-7.9
		c-0.1-0.2-0.2-0.3-0.2-0.5c-0.1-0.2-0.1-0.3-0.1-0.5c0-0.2-0.1-0.3-0.1-0.5v-3.3c0-0.6,0.2-1.1,0.7-1.6c0.4-0.4,1-0.7,1.6-0.7h2.9
		c0.6,0,1.1,0.2,1.6,0.7c0.4,0.4,0.6,1,0.6,1.6v2.9H192v-3.2h-2.7v3.8l4.6,7.9c0.1,0.2,0.2,0.4,0.2,0.6c0.1,0.2,0.1,0.3,0.1,0.5
		c0,0.2,0,0.3,0,0.4v3.8c0,0.6-0.2,1.1-0.6,1.6c-0.4,0.4-0.9,0.7-1.6,0.7H189.2z"/>
	<path id="XMLID_10_" class="st2" d="M209.2,175.5v-18.9h-2.5v-1.9h7.3v1.9h-2.5v18.9H209.2z"/>
	<path id="XMLID_7_" class="st2" d="M228.9,175.7c-0.6,0-1.1-0.2-1.6-0.7c-0.4-0.4-0.7-1-0.7-1.6v-16.7c0-0.6,0.2-1.1,0.7-1.6
		c0.4-0.4,1-0.7,1.6-0.7h3.4c0.6,0,1.1,0.2,1.6,0.7c0.4,0.4,0.7,1,0.7,1.6v16.7c0,0.6-0.2,1.1-0.7,1.6c-0.4,0.4-1,0.7-1.6,0.7H228.9
		z M232.3,156.5H229v17.3h3.2V156.5z"/>
	<path id="XMLID_5_" class="st2" d="M253.8,175.5v-18.9h-3.4v18.9h-2.3v-20.8h2.3l0,1.1c0.2-0.4,0.4-0.7,0.7-0.9
		c0.3-0.2,0.7-0.3,1.2-0.3h1.7c0.6,0,1.1,0.2,1.6,0.7c0.4,0.4,0.7,1,0.7,1.6v18.5H253.8z"/>
	<path id="XMLID_3_" class="st2" d="M269.8,175.5v-20.8h6.5v1.9h-4.2v7.5h3.5v1.9h-3.5v7.5h4.2v1.9H269.8z"/>
</g>
</svg>