<svg xmlns="http://www.w3.org/2000/svg" width="146" height="28.001" viewBox="0 0 146 28.001"><g id="Group_40235" data-name="Group 40235" transform="translate(-260 -27.999)"><rect id="Rectangle_22125" data-name="Rectangle 22125" width="146" height="28" transform="translate(260 28)" fill="none"></rect><g id="Group_40022" data-name="Group 40022" transform="translate(-1255.795 -519.672)"><path id="Path_3634" data-name="Path 3634" d="M768.27,60.571c-.072,1.215-.12,2.384-.167,3.433-1.359-.143-2.694-.357-4.053-.382-3.219-.048-5.055,1.74-5.1,4.983a10.044,10.044,0,0,0,.381,3.266c.644,1.931,2.385,2.86,4.887,2.742,1.264-.072,2.527-.262,3.862-.405.048,1,.143,2.074.167,3.147a.579.579,0,0,1-.382.429,16.069,16.069,0,0,1-7.819-.024,6.885,6.885,0,0,1-4.769-4.911,12.518,12.518,0,0,1,.048-7.367,7.651,7.651,0,0,1,7.1-5.436,18.812,18.812,0,0,1,5.841.525" transform="translate(874.521 494.181)" fill="#2f3438"></path><path id="Path_3635" data-name="Path 3635" d="M696.442,60.308c-.477,0-.667.143-.811.62-1.335,4.315-2.694,8.607-4.005,12.826-1.311-4.22-2.67-8.511-4.005-12.826-.143-.477-.334-.62-.811-.62-1.145.048-2.313.024-3.576.024.477,1.407.882,2.718,1.311,4.03q2.146,6.473,4.267,12.946a.915.915,0,0,0,1.049.739c.573-.024,1.168-.024,1.764-.024s1.192,0,1.765.024a.9.9,0,0,0,1.049-.739q2.111-6.473,4.267-12.946c.429-1.311.858-2.622,1.311-4.03-1.263,0-2.408.024-3.576-.024" transform="translate(885.887 494.134)" fill="#2f3438"></path><path id="Path_3636" data-name="Path 3636" d="M702.288,78.045c.477,0,.667-.143.811-.62,1.335-4.315,2.694-8.607,4.005-12.826,1.311,4.22,2.67,8.511,4.005,12.826.143.477.334.62.811.62,1.145-.048,2.313-.024,3.576-.024-.453-1.431-.882-2.718-1.311-4.029q-2.146-6.473-4.268-12.946a.9.9,0,0,0-1.049-.739c-.6.024-1.168.024-1.765.024s-1.192,0-1.765-.024a.9.9,0,0,0-1.049.739q-2.11,6.472-4.267,12.946c-.429,1.311-.858,2.6-1.311,4.029,1.263,0,2.432-.024,3.576.024" transform="translate(883.427 494.134)" fill="#2f3438"></path><path id="Path_3637" data-name="Path 3637" d="M739.676,78.045a.728.728,0,0,0,.834-.62c1.311-4.315,2.67-8.607,3.982-12.826,1.335,4.22,2.67,8.511,4.005,12.826a.729.729,0,0,0,.834.62c1.145-.048,2.289-.024,3.553-.024-.453-1.431-.882-2.718-1.311-4.029-1.406-4.315-2.86-8.631-4.268-12.946a.878.878,0,0,0-1.025-.739c-.6.024-1.192.024-1.788.024-.572,0-1.168,0-1.765-.024a.878.878,0,0,0-1.024.739c-1.407,4.315-2.861,8.63-4.292,12.946-.429,1.311-.834,2.6-1.311,4.029,1.288,0,2.432-.024,3.576.024" transform="translate(877.485 494.134)" fill="#2f3438"></path><g id="Group_27307" data-name="Group 27307" transform="translate(1515.795 547.671)"><path id="Path_3638" data-name="Path 3638" d="M671.326,53.139a2,2,0,0,0-1.669-.882H652.349a2.045,2.045,0,0,0-1.908,1.288l-.476,1.215a2.866,2.866,0,0,1-.214.859s-7.511,19.264-8.512,21.838l-.119.286a5.062,5.062,0,0,1-1.311,1.884h19.217a4.275,4.275,0,0,0,3.886-2.479l8.654-22.125a2.042,2.042,0,0,0-.239-1.883" transform="translate(-623.005 -52.257)" fill="#d8002e"></path><path id="Path_3639" data-name="Path 3639" d="M644.834,53.139a2.038,2.038,0,0,0-1.669-.882h-21.29a2.027,2.027,0,0,0-1.908,2.765l8.63,22.125a4.323,4.323,0,0,0,7.82,0s.763-1.955,1.86-4.721L632.6,57.954a.812.812,0,0,1,.477-1.049.8.8,0,0,1,1.049.453l5.007,12.826c2.527-6.485,5.912-15.163,5.912-15.163a1.97,1.97,0,0,0-.214-1.883m-10.7,18.953h0a.838.838,0,0,1-.453,1.073,1.409,1.409,0,0,1-.309.048.843.843,0,0,1-.763-.525l-5.746-14.734a.8.8,0,0,1,.453-1.049.816.816,0,0,1,1.072.453Z" transform="translate(-619.83 -52.257)" fill="#d8002e"></path></g><path id="Path_3640" data-name="Path 3640" d="M788.292,70.282c-.12.643-.214,1.287-.382,1.931-1,3.862-3.576,5.889-7.629,6.031a8.086,8.086,0,0,1-6.556-2.289,7.851,7.851,0,0,1-1.931-4.053,13.38,13.38,0,0,1,.334-6.723,7.111,7.111,0,0,1,6.58-5.1,14.4,14.4,0,0,1,4.172.358c2.981.786,4.53,2.956,5.126,5.889q.143.786.286,1.573Zm-12.707-1.168h0c.143.906.214,1.812.429,2.694a3.647,3.647,0,0,0,3.576,2.956,3.6,3.6,0,0,0,4.03-2.408,9.337,9.337,0,0,0-.025-6.58,3.439,3.439,0,0,0-3.218-2.312,3.776,3.776,0,0,0-3.958,2,8.343,8.343,0,0,0-.834,3.648" transform="translate(871.855 494.173)" fill="#2f3438" fill-rule="evenodd"></path><path id="Path_3641" data-name="Path 3641" d="M731.057,68.87c2.217,1,2.909,2.361,2.647,5.15a4.163,4.163,0,0,1-3.5,3.672,13.063,13.063,0,0,1-2.718.31c-2.622.048-5.268.024-7.962.024V60.407a2.944,2.944,0,0,1,.4-.071c2.813,0,5.651.024,8.464.048a9.261,9.261,0,0,1,1.6.262,3.752,3.752,0,0,1,3.219,3.385c.238,1.931-.144,3.648-2.027,4.673-.048.024-.071.071-.12.167M723.619,74.9h0c1.406,0,2.766.071,4.1-.024a2.02,2.02,0,0,0,1.979-2.17c.023-1.263-.477-2.05-1.718-2.169-1.43-.143-2.884-.024-4.363-.024Zm0-7.033h0c1.454-.071,2.838-.071,4.2-.239a1.9,1.9,0,0,0,1.574-2.169c-.048-1.12-.525-1.836-1.621-1.955-1.359-.143-2.743-.143-4.149-.191Z" transform="translate(880.12 494.13)" fill="#2f3438" fill-rule="evenodd"></path></g></g></svg>